<mxfile host="app.diagrams.net" agent="Mozilla/5.0 (Windows NT 10.0; Win64; x64) AppleWebKit/537.36 (KHTML, like Gecko) Chrome/133.0.0.0 Safari/537.36" version="26.0.16">
  <diagram id="Ht1M8jgEwFfnCIfOTk4-" name="Page-1">
    <mxGraphModel dx="1232" dy="865" grid="1" gridSize="10" guides="1" tooltips="1" connect="1" arrows="1" fold="1" page="1" pageScale="1" pageWidth="827" pageHeight="1169" math="0" shadow="0">
      <root>
        <mxCell id="0" />
        <mxCell id="1" parent="0" />
        <mxCell id="Nc6ivV4tG7HydfoHjBAJ-2" value="" style="rounded=1;whiteSpace=wrap;html=1;strokeWidth=1;fillWeight=4;hachureGap=8;hachureAngle=45;fillColor=none;dashed=1;" vertex="1" parent="1">
          <mxGeometry x="40" y="73" width="740" height="417" as="geometry" />
        </mxCell>
        <mxCell id="Nc6ivV4tG7HydfoHjBAJ-1" value="Code Pipeline" style="sketch=0;points=[[0,0,0],[0.25,0,0],[0.5,0,0],[0.75,0,0],[1,0,0],[0,1,0],[0.25,1,0],[0.5,1,0],[0.75,1,0],[1,1,0],[0,0.25,0],[0,0.5,0],[0,0.75,0],[1,0.25,0],[1,0.5,0],[1,0.75,0]];outlineConnect=0;fontColor=#232F3E;fillColor=#C925D1;strokeColor=#ffffff;dashed=0;verticalLabelPosition=middle;verticalAlign=middle;align=left;html=1;fontSize=14;fontStyle=1;aspect=fixed;shape=mxgraph.aws4.resourceIcon;resIcon=mxgraph.aws4.codepipeline;labelPosition=right;fontFamily=Comic Sans MS;" vertex="1" parent="1">
          <mxGeometry x="30" y="40" width="50" height="50" as="geometry" />
        </mxCell>
        <mxCell id="Nc6ivV4tG7HydfoHjBAJ-5" value="Source" style="shape=step;perimeter=stepPerimeter;whiteSpace=wrap;html=1;fixedSize=1;fillColor=#4D4D4D;fontColor=#FFFFFF;fontFamily=Helvetica;fontSize=16;fontStyle=0" vertex="1" parent="1">
          <mxGeometry x="60" y="120" width="290" height="40" as="geometry" />
        </mxCell>
        <mxCell id="Nc6ivV4tG7HydfoHjBAJ-6" value="Build &amp;amp; Test" style="shape=step;perimeter=stepPerimeter;whiteSpace=wrap;html=1;fixedSize=1;fillColor=#4D4D4D;fontColor=#FFFFFF;fontFamily=Helvetica;fontSize=16;fontStyle=0" vertex="1" parent="1">
          <mxGeometry x="360" y="120" width="200" height="40" as="geometry" />
        </mxCell>
        <mxCell id="Nc6ivV4tG7HydfoHjBAJ-7" value="Deploy" style="shape=step;perimeter=stepPerimeter;whiteSpace=wrap;html=1;fixedSize=1;fillColor=#4D4D4D;fontColor=#FFFFFF;fontFamily=Helvetica;fontSize=16;fontStyle=0" vertex="1" parent="1">
          <mxGeometry x="564" y="120" width="186" height="40" as="geometry" />
        </mxCell>
        <mxCell id="Nc6ivV4tG7HydfoHjBAJ-10" value="&lt;div&gt;&lt;br&gt;&lt;/div&gt;&lt;div&gt;&lt;h4 style=&quot;text-align: left;&quot;&gt;&lt;ul&gt;&lt;li&gt;&lt;font style=&quot;font-size: 14px;&quot; face=&quot;Comic Sans MS&quot;&gt;Deploy code to EC2 fleets&lt;/font&gt;&lt;/li&gt;&lt;li&gt;&lt;font style=&quot;font-size: 14px;&quot; face=&quot;Comic Sans MS&quot;&gt;Deploy services EC2, Fargate, Lambda&lt;/font&gt;&lt;/li&gt;&lt;li&gt;&lt;font style=&quot;font-size: 14px;&quot; face=&quot;Comic Sans MS&quot;&gt;Servers must be provisioned ahead of time&lt;/font&gt;&lt;/li&gt;&lt;/ul&gt;&lt;/h4&gt;&lt;/div&gt;" style="rounded=1;whiteSpace=wrap;html=1;strokeWidth=1;fillWeight=4;hachureGap=8;hachureAngle=45;fillColor=none;sketch=1;" vertex="1" parent="1">
          <mxGeometry x="564" y="190" width="190" height="260" as="geometry" />
        </mxCell>
        <mxCell id="Nc6ivV4tG7HydfoHjBAJ-12" value="Code Deploy" style="sketch=0;points=[[0,0,0],[0.25,0,0],[0.5,0,0],[0.75,0,0],[1,0,0],[0,1,0],[0.25,1,0],[0.5,1,0],[0.75,1,0],[1,1,0],[0,0.25,0],[0,0.5,0],[0,0.75,0],[1,0.25,0],[1,0.5,0],[1,0.75,0]];outlineConnect=0;fontColor=#232F3E;fillColor=#C925D1;strokeColor=#ffffff;dashed=0;verticalLabelPosition=middle;verticalAlign=middle;align=left;html=1;fontSize=14;fontStyle=1;aspect=fixed;shape=mxgraph.aws4.resourceIcon;resIcon=mxgraph.aws4.codedeploy;labelPosition=right;fontFamily=Comic Sans MS;" vertex="1" parent="1">
          <mxGeometry x="574" y="200" width="40" height="40" as="geometry" />
        </mxCell>
        <mxCell id="Nc6ivV4tG7HydfoHjBAJ-14" value="&lt;h4&gt;&lt;div&gt;&lt;font face=&quot;Comic Sans MS&quot;&gt;&lt;span style=&quot;font-size: 14px;&quot;&gt;&lt;br&gt;&lt;/span&gt;&lt;/font&gt;&lt;/div&gt;&lt;ul&gt;&lt;li&gt;&lt;font style=&quot;font-size: 14px;&quot; face=&quot;Comic Sans MS&quot;&gt;Build, test and pack the code to deploy&lt;/font&gt;&lt;/li&gt;&lt;li&gt;&lt;font style=&quot;font-size: 14px;&quot; face=&quot;Comic Sans MS&quot;&gt;Automate CI/CD pipeline&lt;/font&gt;&lt;/li&gt;&lt;li&gt;&lt;font style=&quot;font-size: 14px;&quot; face=&quot;Comic Sans MS&quot;&gt;source repo location, runtimr env, progrm lang.&lt;/font&gt;&lt;/li&gt;&lt;/ul&gt;&lt;/h4&gt;" style="rounded=1;whiteSpace=wrap;html=1;strokeWidth=1;fillWeight=4;hachureGap=8;hachureAngle=45;fillColor=none;sketch=1;align=left;" vertex="1" parent="1">
          <mxGeometry x="360" y="190" width="190" height="260" as="geometry" />
        </mxCell>
        <mxCell id="Nc6ivV4tG7HydfoHjBAJ-13" value="Code Build" style="sketch=0;points=[[0,0,0],[0.25,0,0],[0.5,0,0],[0.75,0,0],[1,0,0],[0,1,0],[0.25,1,0],[0.5,1,0],[0.75,1,0],[1,1,0],[0,0.25,0],[0,0.5,0],[0,0.75,0],[1,0.25,0],[1,0.5,0],[1,0.75,0]];outlineConnect=0;fontColor=#232F3E;fillColor=#C925D1;strokeColor=#ffffff;dashed=0;verticalLabelPosition=middle;verticalAlign=middle;align=left;html=1;fontSize=14;fontStyle=1;aspect=fixed;shape=mxgraph.aws4.resourceIcon;resIcon=mxgraph.aws4.codebuild;fontFamily=Comic Sans MS;labelPosition=right;" vertex="1" parent="1">
          <mxGeometry x="380" y="200" width="40" height="40" as="geometry" />
        </mxCell>
        <mxCell id="Nc6ivV4tG7HydfoHjBAJ-16" value="&lt;h4&gt;&lt;div&gt;&lt;span style=&quot;font-size: 14px;&quot;&gt;&lt;br&gt;&lt;/span&gt;&lt;/div&gt;&lt;ul&gt;&lt;li&gt;Version Control Service&lt;/li&gt;&lt;li&gt;Store the code&lt;/li&gt;&lt;ul&gt;&lt;li&gt;docs&lt;/li&gt;&lt;li&gt;source code&lt;/li&gt;&lt;li&gt;binary files&lt;/li&gt;&lt;/ul&gt;&lt;li&gt;Private Git repository&lt;/li&gt;&lt;/ul&gt;&lt;/h4&gt;" style="rounded=1;whiteSpace=wrap;html=1;strokeWidth=1;fillWeight=4;hachureGap=8;hachureAngle=45;fillColor=none;sketch=1;align=left;fontSize=13;verticalAlign=middle;labelPosition=center;verticalLabelPosition=middle;fontFamily=Comic Sans MS;" vertex="1" parent="1">
          <mxGeometry x="160" y="190" width="190" height="260" as="geometry" />
        </mxCell>
        <mxCell id="Nc6ivV4tG7HydfoHjBAJ-17" value="Code Commit" style="sketch=0;points=[[0,0,0],[0.25,0,0],[0.5,0,0],[0.75,0,0],[1,0,0],[0,1,0],[0.25,1,0],[0.5,1,0],[0.75,1,0],[1,1,0],[0,0.25,0],[0,0.5,0],[0,0.75,0],[1,0.25,0],[1,0.5,0],[1,0.75,0]];outlineConnect=0;fontColor=#232F3E;fillColor=#C925D1;strokeColor=#ffffff;dashed=0;verticalLabelPosition=middle;verticalAlign=middle;align=left;html=1;fontSize=14;fontStyle=1;aspect=fixed;shape=mxgraph.aws4.resourceIcon;resIcon=mxgraph.aws4.codecommit;fontFamily=Comic Sans MS;labelPosition=right;" vertex="1" parent="1">
          <mxGeometry x="175" y="200" width="40" height="40" as="geometry" />
        </mxCell>
        <mxCell id="Nc6ivV4tG7HydfoHjBAJ-18" value="" style="sketch=0;points=[[0,0,0],[0.25,0,0],[0.5,0,0],[0.75,0,0],[1,0,0],[0,1,0],[0.25,1,0],[0.5,1,0],[0.75,1,0],[1,1,0],[0,0.25,0],[0,0.5,0],[0,0.75,0],[1,0.25,0],[1,0.5,0],[1,0.75,0]];outlineConnect=0;fontColor=#232F3E;fillColor=#C925D1;strokeColor=#ffffff;dashed=0;verticalLabelPosition=bottom;verticalAlign=top;align=center;html=1;fontSize=12;fontStyle=0;aspect=fixed;shape=mxgraph.aws4.resourceIcon;resIcon=mxgraph.aws4.cloud9;" vertex="1" parent="1">
          <mxGeometry x="60" y="200" width="40" height="40" as="geometry" />
        </mxCell>
      </root>
    </mxGraphModel>
  </diagram>
</mxfile>
